<?xml version="1.0" encoding="iso-8859-1"?>
<!-- Generator: Adobe Illustrator 19.0.0, SVG Export Plug-In . SVG Version: 6.00 Build 0)  -->
<svg xmlns="http://www.w3.org/2000/svg" xmlns:xlink="http://www.w3.org/1999/xlink" version="1.1" id="Capa_1" x="0px" y="0px" viewBox="0 0 512 512" style="enable-background:new 0 0 512 512;" xml:space="preserve" width="512px" height="512px">
<g>
	<g>
		<path d="M256,0C115.03,0,0,115.05,0,256c0,140.97,115.05,256,256,256c140.969,0,256-115.049,256-256C512,115.03,396.951,0,256,0z     M180.053,43.143c-16.396,20.952-28.487,46.509-37.102,71.56c-15.257-5.646-30.167-12.47-44.583-20.484    C121.398,71.774,149.182,54.192,180.053,43.143z M77.867,117.073c18.078,10.525,36.987,19.378,56.508,26.499    c-7.636,30.174-12.125,63.194-13.143,97.428H30.51C33.575,194.465,50.776,151.731,77.867,117.073z M30.51,271h90.722    c1.076,36.178,6.027,71.001,14.472,102.542c-18.894,6.805-37.22,15.228-54.775,25.21C52.078,363.436,33.689,319.264,30.51,271z     M102.103,421.339c13.793-7.42,28.041-13.764,42.614-19.037c8.406,23.219,19.925,46.861,35.337,66.555    C150.833,458.399,124.379,442.087,102.103,421.339z M241,479.434c-32.866-11.14-55.566-53.279-67.62-86.031    c22.159-5.76,44.842-9.15,67.62-10.186V479.434z M241,352.917c-26.031,1.093-51.729,5.02-76.659,11.671    c-7.579-28.689-12.057-60.452-13.098-93.587H241V352.917z M241,241h-89.757c0.978-31.13,4.99-61.048,11.757-88.344    c25.337,6.865,51.484,10.907,78,12.017V241z M241,134.545c-23.405-1.072-46.714-4.649-69.475-10.745    c11.891-34.262,35.12-79.59,69.475-91.234V134.545z M481.49,241h-90.722c-1.018-34.234-5.507-67.253-13.143-97.428    c19.521-7.121,38.429-15.974,56.508-26.499C461.224,151.731,478.425,194.465,481.49,241z M413.632,94.218    c-14.415,8.015-29.325,14.839-44.582,20.484c-8.618-25.057-20.71-50.611-37.103-71.559    C362.818,54.191,390.602,71.773,413.632,94.218z M271,32.566c34.346,11.64,57.578,56.954,69.475,91.234    c-22.761,6.096-46.07,9.673-69.475,10.745V32.566z M271,164.673c26.516-1.111,52.663-5.152,78-12.018    c6.767,27.296,10.779,57.214,11.757,88.344H271V164.673z M271,270.9h89.757c-1.041,33.136-5.519,64.998-13.098,93.687    c-24.93-6.65-50.628-10.577-76.659-11.67V270.9z M271,479.434v-96.217c22.778,1.036,45.461,4.426,67.62,10.186    C326.568,426.151,303.867,468.295,271,479.434z M331.947,468.857c15.407-19.688,26.926-43.321,35.336-66.555    c14.573,5.272,28.821,11.617,42.615,19.037C387.622,442.088,361.168,458.4,331.947,468.857z M431.071,398.753    c-17.554-9.983-35.881-18.406-54.775-25.21c8.445-31.541,13.396-66.464,14.472-102.642h90.722    C478.311,319.164,459.922,363.436,431.071,398.753z" fill="#FFFFFF"/>
	</g>
</g>
<g>
</g>
<g>
</g>
<g>
</g>
<g>
</g>
<g>
</g>
<g>
</g>
<g>
</g>
<g>
</g>
<g>
</g>
<g>
</g>
<g>
</g>
<g>
</g>
<g>
</g>
<g>
</g>
<g>
</g>
</svg>
